HIERARCHY
ROOT Hips
{
	OFFSET 0.000000 83.214638 0.000000
	CHANNELS 6 Xposition Yposition Zposition Xrotation Yrotation Zrotation
	JOINT Pelvis
	{
		OFFSET 0.000000 0.000000 0.000000
		CHANNELS 3 Xrotation Yrotation Zrotation
		JOINT LeftUpLeg
		{
			OFFSET 8.479700 -4.795502 -0.379100
			CHANNELS 3 Xrotation Yrotation Zrotation
			JOINT LeftLeg
			{
				OFFSET 0.024144 -32.555107 0.112900
				CHANNELS 3 Xrotation Yrotation Zrotation
				JOINT LeftFoot
				{
					OFFSET -0.024144 -32.638630 -3.012600
					CHANNELS 3 Xrotation Yrotation Zrotation
					JOINT LeftToeBase
					{
						OFFSET 0.970200 -13.225400 11.864200
						CHANNELS 3 Xrotation Yrotation Zrotation
						End Site
						{
							OFFSET 0.000000 12.319262 0.000000
						}
					}
					JOINT LFootTongue
					{
						OFFSET 1.142400 -1.059800 6.665200
						CHANNELS 3 Xrotation Yrotation Zrotation
						End Site
						{
							OFFSET 0.000000 12.319262 0.000000
						}
					}
				}
				JOINT LeftPantLeg
				{
					OFFSET 0.918482 -16.533964 -2.284700
					CHANNELS 3 Xrotation Yrotation Zrotation
					End Site
					{
						OFFSET 0.350399 24.744368 0.000000
					}
				}
			}
		}
		JOINT RightUpLeg
		{
			OFFSET -8.479700 -4.795502 -0.379100
			CHANNELS 3 Xrotation Yrotation Zrotation
			JOINT RightLeg
			{
				OFFSET -0.023144 -32.555092 0.112900
				CHANNELS 3 Xrotation Yrotation Zrotation
				JOINT RightFoot
				{
					OFFSET 0.023144 -32.638641 -3.012700
					CHANNELS 3 Xrotation Yrotation Zrotation
					JOINT RightToeBase
					{
						OFFSET -0.970200 -13.225400 11.864200
						CHANNELS 3 Xrotation Yrotation Zrotation
						End Site
						{
							OFFSET 0.000000 12.319244 0.000000
						}
					}
					JOINT RFootTongue
					{
						OFFSET -1.142200 -1.059800 6.665200
						CHANNELS 3 Xrotation Yrotation Zrotation
						End Site
						{
							OFFSET 0.000000 12.319243 0.000000
						}
					}
				}
				JOINT RightPantLeg
				{
					OFFSET -0.919482 -16.533978 -2.284800
					CHANNELS 3 Xrotation Yrotation Zrotation
					End Site
					{
						OFFSET -0.350400 24.744419 0.000000
					}
				}
			}
		}
	}
	JOINT Spine
	{
		OFFSET 0.000000 7.722000 1.166200
		CHANNELS 3 Xrotation Yrotation Zrotation
		JOINT Spine1
		{
			OFFSET 0.000000 12.024101 0.248800
			CHANNELS 3 Xrotation Yrotation Zrotation
			JOINT Spine2
			{
				OFFSET 0.000000 11.502998 -0.491200
				CHANNELS 3 Xrotation Yrotation Zrotation
				JOINT Neck
				{
					OFFSET 0.000000 18.430702 -3.123100
					CHANNELS 3 Xrotation Yrotation Zrotation
					JOINT Head
					{
						OFFSET 0.000000 9.051102 1.034000
						CHANNELS 3 Xrotation Yrotation Zrotation
						JOINT HairB
						{
							OFFSET 0.208400 24.786102 24.822300
							CHANNELS 3 Xrotation Yrotation Zrotation
							End Site
							{
								OFFSET 0.000000 32.263779 0.000000
							}
						}
						JOINT HairA
						{
							OFFSET -7.081100 24.428299 23.196600
							CHANNELS 3 Xrotation Yrotation Zrotation
							End Site
							{
								OFFSET 0.000000 32.263779 0.000000
							}
						}
						JOINT Hat
						{
							OFFSET 16.728800 15.048294 -15.439601
							CHANNELS 3 Xrotation Yrotation Zrotation
							End Site
							{
								OFFSET 0.000000 32.263779 0.000000
							}
						}
					}
				}
				JOINT LeftShoulder
				{
					OFFSET 6.197800 13.665199 -4.064700
					CHANNELS 3 Xrotation Yrotation Zrotation
					JOINT LeftArm
					{
						OFFSET 7.778100 -0.187103 -1.709300
						CHANNELS 3 Xrotation Yrotation Zrotation
						JOINT LeftForeArm
						{
							OFFSET 22.049376 0.000000 0.000000
							CHANNELS 3 Xrotation Yrotation Zrotation
							JOINT LeftHand
							{
								OFFSET 23.009392 0.000000 0.000000
								CHANNELS 3 Xrotation Yrotation Zrotation
								JOINT LeftHandThumb1
								{
									OFFSET 3.507191 -2.063065 3.133727
									CHANNELS 3 Xrotation Yrotation Zrotation
									JOINT LeftHandThumb2
									{
										OFFSET 3.101337 -1.790558 1.790558
										CHANNELS 3 Xrotation Yrotation Zrotation
										JOINT LeftHandThumb3
										{
											OFFSET 3.058640 -1.765907 1.765906
											CHANNELS 3 Xrotation Yrotation Zrotation
											End Site
											{
												OFFSET -0.415260 3.926476 -0.049563
											}
										}
									}
								}
								JOINT LeftHandIndex1
								{
									OFFSET 11.334419 -0.901459 3.706815
									CHANNELS 3 Xrotation Yrotation Zrotation
									JOINT LeftHandIndex2
									{
										OFFSET 3.283112 0.000000 0.000000
										CHANNELS 3 Xrotation Yrotation Zrotation
										JOINT LeftHandIndex3
										{
											OFFSET 3.323853 0.000000 0.000000
											CHANNELS 3 Xrotation Yrotation Zrotation
											End Site
											{
												OFFSET -1.135597 3.097809 0.402452
											}
										}
									}
								}
								JOINT LeftHandMiddle1
								{
									OFFSET 11.335861 0.000000 0.000000
									CHANNELS 3 Xrotation Yrotation Zrotation
									JOINT LeftHandMiddle2
									{
										OFFSET 3.410492 0.000000 0.000000
										CHANNELS 3 Xrotation Yrotation Zrotation
										JOINT LeftHandMiddle3
										{
											OFFSET 3.312172 0.000000 0.000000
											CHANNELS 3 Xrotation Yrotation Zrotation
											End Site
											{
												OFFSET -1.150200 3.080154 0.400270
											}
										}
									}
								}
								JOINT LeftHandRing1
								{
									OFFSET 11.514786 -0.013176 -3.003090
									CHANNELS 3 Xrotation Yrotation Zrotation
									JOINT LeftHandRing2
									{
										OFFSET 3.053307 0.000000 0.000000
										CHANNELS 3 Xrotation Yrotation Zrotation
										JOINT LeftHandRing3
										{
											OFFSET 3.295807 0.000000 0.000000
											CHANNELS 3 Xrotation Yrotation Zrotation
											End Site
											{
												OFFSET -1.281006 3.013344 0.375733
											}
										}
									}
								}
								JOINT LeftHandPinky1
								{
									OFFSET 10.518692 -0.960396 -5.730441
									CHANNELS 3 Xrotation Yrotation Zrotation
									JOINT LeftHandPinky2
									{
										OFFSET 2.861649 0.000000 0.000000
										CHANNELS 3 Xrotation Yrotation Zrotation
										JOINT LeftHandPinky3
										{
											OFFSET 2.863380 0.000000 0.000000
											CHANNELS 3 Xrotation Yrotation Zrotation
											End Site
											{
												OFFSET -0.843597 2.711159 0.369971
											}
										}
									}
								}
							}
							JOINT LSleeve
							{
								OFFSET 6.676277 -0.344902 -1.011730
								CHANNELS 3 Xrotation Yrotation Zrotation
								End Site
								{
									OFFSET 0.000000 14.885353 0.000000
								}
							}
						}
					}
				}
				JOINT RightShoulder
				{
					OFFSET -6.197800 13.665199 -4.064700
					CHANNELS 3 Xrotation Yrotation Zrotation
					JOINT RightArm
					{
						OFFSET -7.778100 -0.187103 -1.709300
						CHANNELS 3 Xrotation Yrotation Zrotation
						JOINT RightForeArm
						{
							OFFSET -22.049376 0.000000 0.000000
							CHANNELS 3 Xrotation Yrotation Zrotation
							JOINT RightHand
							{
								OFFSET -23.009392 0.000000 0.000000
								CHANNELS 3 Xrotation Yrotation Zrotation
								JOINT RightHandThumb1
								{
									OFFSET -3.507191 -2.063065 3.133727
									CHANNELS 3 Xrotation Yrotation Zrotation
									JOINT RightHandThumb2
									{
										OFFSET -3.101337 -1.790558 1.790558
										CHANNELS 3 Xrotation Yrotation Zrotation
										JOINT RightHandThumb3
										{
											OFFSET -3.058640 -1.765907 1.765906
											CHANNELS 3 Xrotation Yrotation Zrotation
											End Site
											{
												OFFSET 0.415260 3.926476 -0.049563
											}
										}
									}
								}
								JOINT RightHandIndex1
								{
									OFFSET -11.334419 -0.901459 3.706815
									CHANNELS 3 Xrotation Yrotation Zrotation
									JOINT RightHandIndex2
									{
										OFFSET -3.283112 0.000000 0.000000
										CHANNELS 3 Xrotation Yrotation Zrotation
										JOINT RightHandIndex3
										{
											OFFSET -3.323853 0.000000 0.000000
											CHANNELS 3 Xrotation Yrotation Zrotation
											End Site
											{
												OFFSET 1.135597 3.097809 0.402452
											}
										}
									}
								}
								JOINT RightHandMiddle1
								{
									OFFSET -11.335861 0.000000 0.000000
									CHANNELS 3 Xrotation Yrotation Zrotation
									JOINT RightHandMiddle2
									{
										OFFSET -3.410492 0.000000 0.000000
										CHANNELS 3 Xrotation Yrotation Zrotation
										JOINT RightHandMiddle3
										{
											OFFSET -3.312172 0.000000 0.000000
											CHANNELS 3 Xrotation Yrotation Zrotation
											End Site
											{
												OFFSET 1.150200 3.080154 0.400270
											}
										}
									}
								}
								JOINT RightHandRing1
								{
									OFFSET -11.514786 -0.013176 -3.003090
									CHANNELS 3 Xrotation Yrotation Zrotation
									JOINT RightHandRing2
									{
										OFFSET -3.053307 0.000000 0.000000
										CHANNELS 3 Xrotation Yrotation Zrotation
										JOINT RightHandRing3
										{
											OFFSET -3.295807 0.000000 0.000000
											CHANNELS 3 Xrotation Yrotation Zrotation
											End Site
											{
												OFFSET 1.281006 3.013344 0.375733
											}
										}
									}
								}
								JOINT RightHandPinky1
								{
									OFFSET -10.518692 -0.960396 -5.730441
									CHANNELS 3 Xrotation Yrotation Zrotation
									JOINT RightHandPinky2
									{
										OFFSET -2.861649 0.000000 0.000000
										CHANNELS 3 Xrotation Yrotation Zrotation
										JOINT RightHandPinky3
										{
											OFFSET -2.863380 0.000000 0.000000
											CHANNELS 3 Xrotation Yrotation Zrotation
											End Site
											{
												OFFSET 0.843597 2.711159 0.369971
											}
										}
									}
								}
							}
							JOINT RSleeve
							{
								OFFSET -6.676277 -0.344902 -1.011730
								CHANNELS 3 Xrotation Yrotation Zrotation
								End Site
								{
									OFFSET 0.000000 14.885353 0.000000
								}
							}
						}
					}
				}
				JOINT Backpack
				{
					OFFSET 0.000000 -2.471497 36.677502
					CHANNELS 3 Xrotation Yrotation Zrotation
					End Site
					{
						OFFSET 0.000000 20.427315 0.000000
					}
				}
				JOINT Hood
				{
					OFFSET 0.000000 18.754097 -10.431000
					CHANNELS 3 Xrotation Yrotation Zrotation
					JOINT Hood1
					{
						OFFSET 0.000000 -5.011002 -7.685901
						CHANNELS 3 Xrotation Yrotation Zrotation
						End Site
						{
							OFFSET 0.000000 9.175140 0.000000
						}
					}
				}
				JOINT LHoodieString
				{
					OFFSET 5.250500 16.397697 3.089900
					CHANNELS 3 Xrotation Yrotation Zrotation
					JOINT LHoodieString1
					{
						OFFSET 0.257700 -6.364304 3.694600
						CHANNELS 3 Xrotation Yrotation Zrotation
						JOINT LHoodieString2
						{
							OFFSET 0.000000 -9.643799 2.679100
							CHANNELS 3 Xrotation Yrotation Zrotation
							End Site
							{
								OFFSET 0.000000 10.009018 0.000000
							}
						}
					}
				}
				JOINT RHoodieString
				{
					OFFSET -5.250500 16.397697 3.089900
					CHANNELS 3 Xrotation Yrotation Zrotation
					JOINT RHoodieString1
					{
						OFFSET -0.257700 -6.364304 3.694600
						CHANNELS 3 Xrotation Yrotation Zrotation
						JOINT RHoodieString2
						{
							OFFSET 0.000000 -9.643799 2.679100
							CHANNELS 3 Xrotation Yrotation Zrotation
							End Site
							{
								OFFSET 0.000000 10.009018 0.000000
							}
						}
					}
				}
			}
			JOINT LBackpack_Strap
			{
				OFFSET 15.223200 -7.719803 -6.610900
				CHANNELS 3 Xrotation Yrotation Zrotation
				End Site
				{
					OFFSET 0.000000 16.040596 0.000000
				}
			}
			JOINT RBackpack_Strap
			{
				OFFSET -15.223000 -7.719803 -6.610900
				CHANNELS 3 Xrotation Yrotation Zrotation
				End Site
				{
					OFFSET 0.000000 16.040596 0.000000
				}
			}
		}
	}
	JOINT BoyFacialAnim_Joint
	{
		OFFSET 1.000000 -82.208099 -1.550900
		CHANNELS 3 Xrotation Yrotation Zrotation
		End Site
		{
			OFFSET 0.000000 30.012791 0.000000
		}
	}
}
MOTION
Frames: 4
Frame Time: 0.016667
-0.249438 70.702019 0.244472 11.695712 -49.489242 11.290164 -0.000000 0.000001 -0.000000 -64.578578 28.127814 42.220995 45.036106 -20.081209 3.175734 2.545511 0.952071 -10.119476 0.000000 -0.000002 -0.000000 0.000000 -0.000002 0.000000 -0.000000 0.000000 0.000001 -33.975526 -0.459149 -24.258190 53.259612 1.997649 -6.750469 -26.565117 -2.745222 24.293549 0.000000 -0.000000 -0.000000 0.000000 -0.000000 -0.000000 0.000002 -0.000001 -0.000004 10.973402 2.836673 -2.050397 6.100707 5.566556 -4.284692 -5.786913 6.328134 -3.046181 2.319046 9.363321 -0.265467 -4.147092 23.161901 -3.523281 0.000000 0.000000 0.000001 0.000000 0.000000 0.000001 0.000000 0.000000 0.000001 -1.875342 -16.181679 -2.870472 -10.644689 2.164662 -45.510630 -22.862371 -25.786240 -15.871640 2.491027 -2.511867 6.860444 18.457970 -9.513771 13.216599 -1.150195 11.255330 -8.400820 0.000001 -0.000000 0.000003 -1.232784 -5.771973 -0.192338 0.133947 -0.197641 -4.602144 -0.000000 0.000001 -0.000003 1.884735 4.663385 -4.597376 0.476690 -1.009850 -12.986415 0.000001 0.000001 -0.000003 3.024639 7.938889 -14.103468 -0.708017 -0.566201 -18.895746 -0.000002 -0.000000 -0.000002 2.010405 6.305947 -22.386536 -0.815364 -0.210757 -16.746461 0.000001 0.000001 0.000002 0.000002 -0.000001 0.000002 -5.074638 24.343808 1.482711 6.642379 -34.733810 57.610412 -21.031971 44.833802 19.961643 -0.087213 35.608477 7.474241 55.149563 18.649541 -29.698298 -0.442553 -14.180550 7.313152 -0.000001 -0.000002 -0.000000 5.673397 7.585003 36.844185 1.050428 3.824508 68.900257 -0.000000 0.000000 0.000005 -0.125690 1.886092 45.000773 -1.169020 3.204654 68.417677 0.000003 0.000000 -0.000000 -5.312026 1.216634 58.508807 -0.745216 1.667565 48.011281 -0.000001 0.000001 0.000006 -7.756797 -9.376458 47.263997 -0.526038 1.541593 45.600508 -0.000000 -0.000000 0.000000 0.000003 -0.000002 0.000000 -0.000000 -0.000003 0.000001 -0.000000 -0.000003 0.000001 -0.000000 -0.000003 0.000001 -0.000000 -0.000003 0.000001 -0.000000 -0.000003 0.000001 -0.000003 0.000002 0.000000 -0.000000 -0.000003 0.000001 -0.000000 -0.000003 0.000001 -0.000003 0.000002 0.000000 -0.000000 -0.000000 0.000000 -0.000000 -0.000000 0.000000 -0.000000 0.000001 -0.000000 
0.288450 70.790169 1.033361 11.479733 -50.086546 11.066779 0.000000 0.000004 -0.000000 -64.534161 28.238271 42.329875 46.479027 -19.610950 3.011865 1.258200 0.985727 -9.235855 0.000000 -0.000002 -0.000000 0.000000 -0.000002 -0.000000 -0.000000 -0.000002 0.000001 -33.142397 -0.201284 -24.538745 51.697268 2.196538 -7.020396 -25.329231 -3.289340 25.147261 -0.000000 -0.000000 0.000000 -0.000000 -0.000000 0.000000 -0.000001 -0.000003 -0.000004 10.935974 2.820065 -1.988167 6.124979 5.554773 -4.185732 -5.749232 6.252891 -2.945711 2.454513 9.259351 0.283438 -4.037795 23.425829 -4.188947 0.000001 0.000000 0.000000 0.000001 0.000000 0.000000 0.000001 0.000000 0.000000 -1.890574 -15.766098 -3.028446 -10.843716 2.172856 -45.626989 -22.239287 -25.278204 -15.651659 2.395511 -2.217313 6.686381 18.445882 -9.517016 13.239952 -1.175406 11.215349 -8.387399 0.000001 -0.000001 0.000002 -1.232783 -5.771124 -0.170641 0.134052 -0.196780 -4.580396 0.000002 -0.000000 -0.000004 1.839191 4.652775 -4.567436 0.476918 -1.008853 -12.960870 -0.000001 0.000003 -0.000003 3.025071 7.940576 -14.060288 -0.707462 -0.564589 -18.852227 0.000002 0.000001 -0.000000 2.032041 6.337663 -22.326015 -0.814710 -0.208470 -16.683548 0.000001 0.000001 0.000003 0.000002 0.000002 0.000002 -5.114985 24.192848 1.600715 7.019143 -34.769406 57.282881 -21.780872 43.487002 20.030015 -0.160462 36.453157 8.087212 55.149563 18.649545 -29.698305 -0.442550 -14.180555 7.313154 0.000001 0.000000 0.000001 5.673401 7.585005 36.844178 1.050429 3.824509 68.900250 -0.000000 0.000002 -0.000001 -0.125690 1.886095 45.000776 -1.169019 3.204654 68.417677 0.000000 0.000001 -0.000002 -5.312026 1.216639 58.508807 -0.745215 1.667566 48.011285 -0.000000 0.000001 0.000001 -7.756803 -9.376456 47.263997 -0.526037 1.541594 45.600508 -0.000003 -0.000001 0.000002 0.000000 -0.000001 -0.000002 0.000002 0.000001 -0.000000 0.000002 0.000001 -0.000000 0.000002 0.000001 -0.000000 0.000002 0.000001 -0.000000 0.000002 0.000001 0.000001 0.000002 0.000001 -0.000001 0.000002 0.000001 -0.000000 0.000002 0.000001 0.000001 0.000002 0.000001 -0.000001 0.000003 0.000001 -0.000000 0.000003 0.000001 -0.000000 0.000000 0.000004 -0.000000 
0.936997 70.926743 1.824761 11.292762 -50.852568 10.891918 -0.000000 -0.000001 0.000000 -64.361624 28.477760 42.395397 47.665899 -19.097882 2.793129 0.066351 1.071388 -8.347444 -0.000000 -0.000000 0.000000 -0.000000 -0.000000 0.000000 0.000000 -0.000001 -0.000000 -32.334525 0.065244 -24.873314 49.883457 2.459069 -7.236647 -23.968203 -3.662289 25.989259 -0.000000 -0.000000 -0.000000 -0.000000 -0.000000 -0.000000 0.000002 0.000003 -0.000001 10.837168 2.811495 -1.919746 6.211053 5.531378 -4.085918 -5.634573 6.080643 -2.847561 2.506712 8.998877 0.963304 -3.946314 23.543602 -4.816442 0.000000 0.000000 -0.000000 0.000000 0.000000 -0.000000 0.000000 0.000000 -0.000000 -1.898937 -15.838102 -3.026463 -10.916598 3.036735 -45.852703 -21.654543 -24.915511 -15.679234 2.318325 -2.084220 6.697805 18.431662 -9.520747 13.267333 -1.205843 11.169451 -8.368945 -0.000001 0.000001 0.000001 -1.232806 -5.770126 -0.145198 0.134133 -0.195819 -4.554966 -0.000004 -0.000001 -0.000007 1.785763 4.640279 -4.532344 0.477199 -1.007136 -12.931025 -0.000001 -0.000001 -0.000000 3.025560 7.942508 -14.009674 -0.706789 -0.562729 -18.801279 -0.000001 -0.000001 -0.000000 2.057243 6.374982 -22.255036 -0.813893 -0.205799 -16.609753 -0.000001 -0.000001 -0.000000 -0.000001 0.000005 -0.000003 -5.162241 24.117331 1.733596 7.217163 -34.742898 57.034812 -22.411799 42.270074 20.016501 -0.144747 37.048889 8.544430 55.149563 18.649543 -29.698301 -0.442554 -14.180555 7.313154 0.000001 0.000003 -0.000000 5.673397 7.585008 36.844185 1.050430 3.824514 68.900257 -0.000000 -0.000000 0.000007 -0.125692 1.886095 45.000773 -1.169018 3.204652 68.417677 0.000001 -0.000001 0.000003 -5.312027 1.216640 58.508801 -0.745217 1.667560 48.011285 -0.000001 0.000000 0.000000 -7.756800 -9.376456 47.264004 -0.526038 1.541587 45.600505 -0.000002 -0.000002 0.000002 0.000001 0.000003 -0.000003 -0.000000 -0.000003 0.000002 -0.000000 -0.000003 0.000002 -0.000000 -0.000003 0.000002 -0.000000 -0.000003 0.000002 -0.000000 -0.000003 0.000002 -0.000002 0.000001 0.000001 -0.000000 -0.000003 0.000002 -0.000000 -0.000003 0.000002 -0.000002 0.000001 0.000001 0.000002 0.000003 -0.000001 0.000002 0.000003 -0.000001 -0.000000 -0.000001 0.000000 
1.684059 71.086197 2.712569 11.189521 -51.840477 10.780710 -0.000000 0.000005 -0.000001 -64.134404 28.779016 42.430720 48.897522 -18.459635 2.562167 -1.258735 1.242072 -7.409218 0.000000 -0.000002 -0.000000 0.000000 -0.000002 -0.000000 -0.000000 -0.000003 -0.000000 -31.518772 0.320825 -25.369880 47.700480 2.875384 -7.335752 -22.483458 -3.866654 26.865157 0.000000 0.000000 -0.000000 0.000000 0.000000 -0.000000 0.000000 0.000002 -0.000003 10.680848 2.791284 -1.833763 6.304671 5.446443 -3.965666 -5.493478 5.769521 -2.734777 2.557823 8.625431 1.729381 -3.941159 23.486698 -5.405072 -0.000000 -0.000000 0.000000 -0.000000 -0.000000 0.000000 -0.000000 -0.000000 0.000000 -1.912184 -15.416603 -3.171548 -11.148244 3.692013 -46.007519 -20.985179 -24.405056 -15.663017 2.270415 -1.926659 6.652083 18.404095 -9.528077 13.320410 -1.265157 11.080871 -8.332343 0.000001 0.000000 -0.000001 -1.232761 -5.768247 -0.095807 0.134292 -0.193899 -4.505596 0.000000 0.000001 -0.000007 1.682305 4.615622 -4.464377 0.477661 -1.002994 -12.873081 0.000001 0.000001 -0.000003 3.030796 7.946177 -13.912201 -0.705572 -0.559045 -18.702511 -0.000001 0.000000 -0.000000 2.105542 6.447771 -22.117568 -0.813379 -0.200591 -16.466582 0.000002 0.000003 0.000000 -0.000002 -0.000000 0.000003 -5.215425 24.184385 1.892620 6.918580 -34.742170 56.575287 -22.804864 40.833521 19.736783 -0.060794 37.536589 9.176364 55.149570 18.649541 -29.698298 -0.442554 -14.180557 7.313150 0.000000 -0.000000 -0.000000 5.673400 7.585001 36.844178 1.050431 3.824510 68.900257 -0.000002 -0.000002 -0.000000 -0.125692 1.886095 45.000773 -1.169019 3.204651 68.417677 0.000001 0.000001 0.000002 -5.312024 1.216635 58.508794 -0.745216 1.667561 48.011288 -0.000001 0.000002 -0.000001 -7.756795 -9.376460 47.263997 -0.526039 1.541589 45.600508 -0.000003 -0.000003 -0.000002 -0.000002 -0.000002 0.000001 0.000002 0.000003 -0.000001 0.000002 0.000003 -0.000001 0.000002 0.000003 -0.000001 0.000002 0.000003 -0.000001 0.000002 0.000003 -0.000001 0.000002 -0.000002 0.000001 0.000002 0.000003 -0.000001 0.000002 0.000003 -0.000001 0.000002 -0.000002 0.000001 0.000001 -0.000002 0.000001 0.000001 -0.000002 0.000001 -0.000000 0.000005 -0.000001 
